<?xml version="1.0" encoding="utf-8"?>
<!-- Generator: Adobe Illustrator 16.0.0, SVG Export Plug-In . SVG Version: 6.00 Build 0)  -->
<!DOCTYPE svg PUBLIC "-//W3C//DTD SVG 1.1//EN" "http://www.w3.org/Graphics/SVG/1.1/DTD/svg11.dtd">
<svg version="1.1" id="Layer_1" xmlns="http://www.w3.org/2000/svg" xmlns:xlink="http://www.w3.org/1999/xlink" x="0px" y="0px"
	 width="960px" height="560px" viewBox="0 0 960 560" enable-background="new 0 0 960 560" xml:space="preserve">
<path fill="#007BC1" d="M414.14,267.126c1.479,16.874-5.671,34.086-20.379,44.766c-22.296,16.193-53.505,11.251-69.693-11.047
	c-16.196-22.29-11.251-53.49,11.044-69.688c14.428-10.491,32.591-12.102,48.005-5.89c-20.502-11.236-46.501-10.436-66.669,4.214
	c-27.867,20.245-34.05,59.258-13.806,87.121c20.247,27.872,59.248,34.048,87.123,13.798
	C410.275,315.5,419.02,290.431,414.14,267.126"/>
<path fill="#007BC1" d="M371.333,289.473c-8.556,6.217-20.543,4.321-26.762-4.239c-6.214-8.558-4.321-20.553,4.242-26.77
	c8.562-6.216,20.548-4.326,26.762,4.245C381.802,271.269,379.896,283.246,371.333,289.473 M403.585,251.748
	c-0.271,3.262-1.898,6.385-4.744,8.448c-5.208,3.781-12.483,2.63-16.263-2.568c-3.783-5.212-2.624-12.489,2.576-16.259
	c2.731-1.993,6.033-2.594,9.101-1.998c-13.707-12.27-34.567-13.772-50.058-2.522c-17.834,12.948-21.791,37.92-8.831,55.752
	c12.953,17.834,37.918,21.799,55.753,8.836C407.014,289.9,411.87,268.823,403.585,251.748"/>
<path fill="#007BC1" d="M421.197,241.078c4.158-3.026,5.083-8.855,2.056-13.009c-3.026-4.158-8.846-5.085-13.009-2.059
	c-4.157,3.027-5.077,8.851-2.056,13.009C411.21,243.178,417.026,244.105,421.197,241.078"/>
<path fill="#007BC1" d="M440.099,225.201c3.333-2.416,4.079-7.073,1.648-10.41c-2.417-3.322-7.075-4.056-10.404-1.641
	c-3.325,2.416-4.059,7.073-1.653,10.4C432.114,226.882,436.779,227.621,440.099,225.201"/>
<path fill="#007BC1" d="M521.895,258.148c0-0.826-0.306-1.549-0.928-2.176c-0.52-0.515-1.243-0.831-2.079-0.831
	c-0.938,0-1.655,0.316-2.171,0.831c-0.621,0.626-0.927,1.35-0.927,2.176c0,0.825,0.306,1.554,0.927,2.181
	c0.516,0.52,1.233,0.825,2.171,0.928c0.836-0.103,1.56-0.408,2.079-0.928C521.589,259.702,521.895,258.974,521.895,258.148"/>
<path fill="#007BC1" d="M578.688,258.663c1.126,0,2.375,0.418,3.725,1.039V254c-2.695-1.136-5.487-0.927-8.382,0.835
	c-2.288,1.351-3.531,4.245-3.734,8.703v6.833h-5.906v5.085h5.687l0.112,29.74h5.284v-29.74h6.211v-5.085h-6.211v-6.318
	C575.474,260.64,576.615,258.877,578.688,258.663"/>
<path fill="#007BC1" d="M594.852,258.046c0-0.826-0.214-1.554-0.825-2.17c-0.521-0.627-1.243-0.943-2.079-0.841
	c-0.928-0.102-1.661,0.214-2.283,0.841c-0.51,0.616-0.825,1.345-0.825,2.17c0,0.831,0.315,1.549,0.825,2.176
	c0.622,0.515,1.355,0.831,2.283,0.831c0.836,0,1.559-0.316,2.079-0.831C594.638,259.596,594.852,258.877,594.852,258.046"/>
<path fill="#007BC1" d="M656.303,284.581c0.724-5.185,2.385-8.191,4.861-9.124c3.435-1.447,6.12-0.097,8.407,4.041
	c1.346,3.728,1.753,7.672,1.229,11.819c-0.611,4.138-2.268,6.93-5.07,8.388c-2.797,1.039-5.278,0.315-7.256-2.172
	C656.507,294.109,655.783,289.86,656.303,284.581 M676.094,254h-5.177v19.689c-2.589-3.108-5.6-4.347-8.815-3.938
	c-3.312,0.214-6.119,1.865-8.387,5.08c-1.978,3.215-3.007,6.947-3.007,11.401c-0.112,3.729,0.408,7.256,1.442,10.578
	c0.933,2.374,1.972,4.249,3.215,5.584c2.803,3.108,6.527,3.944,11.093,2.487c1.87-0.928,3.521-2.069,4.866-3.72v4.035h4.77V254z"/>
<rect x="636.196" y="254" fill="#007BC1" width="5.188" height="51.095"/>
<polygon fill="#007BC1" points="469.049,257.425 441.177,257.425 441.177,263.224 452.369,263.224 452.369,305.31 457.961,305.31 
	457.961,263.121 469.049,263.121 "/>
<polygon fill="#007BC1" points="509.986,270.372 504.691,270.372 497.645,296.291 490.705,270.372 484.799,270.372 478.062,296.708 
	471.739,270.372 465.844,270.372 475.271,305.197 480.552,305.197 487.489,278.77 494.746,305.197 500.137,305.197 "/>
<path fill="#007BC1" d="M609.149,284.469c0.418-4.038,1.763-6.835,4.147-8.491c1.656-1.56,3.827-1.56,6.426,0
	c2.074,1.967,3.205,4.866,3.521,8.593L609.149,284.469z M626.459,275.769c-1.248-2.594-3.216-4.459-6.008-5.702
	c-2.283-0.724-4.673-0.724-7.154,0c-3.419,1.243-6.008,3.837-7.771,7.979c-1.661,4.253-2.176,8.909-1.564,13.995
	c0.321,2.996,1.468,5.9,3.221,8.703c2.181,2.69,4.866,4.453,8.081,5.064c4.041,0.316,7.776-0.306,11.099-1.854v-6.421
	c-1.764,1.233-3.837,2.273-6.431,2.997c-2.904,0.428-5.381-0.204-7.674-2.069c-2.069-1.967-3.2-4.973-3.2-9.009h19.475
	C628.736,283.338,628.115,278.774,626.459,275.769"/>
<rect x="589.149" y="270.275" fill="#007BC1" width="5.279" height="34.922"/>
<path fill="#007BC1" d="M538.159,274.011v-3.735h-5.065v34.922h5.289v-19.791c0.51-6.428,2.584-9.852,6.522-10.265
	c1.55-0.311,3.001,0.214,4.352,1.345c1.447,1.768,2.074,3.944,2.181,6.637v21.972h5.279v-22.492
	c-0.107-2.585-0.621-5.077-1.661-7.559c-1.243-2.599-3.312-4.356-6.217-4.983C544.386,269.241,540.753,270.576,538.159,274.011"/>
<rect x="516.31" y="270.377" fill="#007BC1" width="5.279" height="34.82"/>
</svg>
