<?xml version="1.0" encoding="utf-8"?>
<!-- Generator: Adobe Illustrator 16.0.0, SVG Export Plug-In . SVG Version: 6.00 Build 0)  -->
<!DOCTYPE svg PUBLIC "-//W3C//DTD SVG 1.1//EN" "http://www.w3.org/Graphics/SVG/1.1/DTD/svg11.dtd">
<svg version="1.1" id="Layer_1" xmlns="http://www.w3.org/2000/svg" xmlns:xlink="http://www.w3.org/1999/xlink" x="0px" y="0px"
	 width="960px" height="560px" viewBox="0 0 960 560" enable-background="new 0 0 960 560" xml:space="preserve">
<path fill="#007BC1" d="M530.14,267.126c1.479,16.874-5.671,34.086-20.379,44.766c-22.296,16.193-53.505,11.251-69.693-11.047
	c-16.196-22.29-11.251-53.49,11.044-69.688c14.428-10.491,32.591-12.102,48.005-5.89c-20.502-11.236-46.501-10.436-66.669,4.214
	c-27.867,20.245-34.05,59.258-13.806,87.121c20.247,27.872,59.248,34.048,87.123,13.798
	C526.275,315.5,535.02,290.431,530.14,267.126"/>
<path fill="#007BC1" d="M487.333,289.473c-8.556,6.217-20.543,4.321-26.762-4.239c-6.214-8.558-4.321-20.553,4.242-26.77
	c8.562-6.216,20.548-4.326,26.762,4.245C497.802,271.269,495.896,283.246,487.333,289.473 M519.585,251.748
	c-0.271,3.262-1.898,6.385-4.744,8.448c-5.208,3.781-12.483,2.63-16.263-2.568c-3.783-5.212-2.624-12.489,2.576-16.259
	c2.731-1.993,6.033-2.594,9.101-1.998c-13.707-12.27-34.567-13.772-50.058-2.522c-17.834,12.948-21.791,37.92-8.831,55.752
	c12.953,17.834,37.918,21.799,55.753,8.836C523.014,289.9,527.87,268.823,519.585,251.748"/>
<path fill="#007BC1" d="M537.197,241.078c4.158-3.026,5.083-8.855,2.056-13.009c-3.026-4.158-8.846-5.085-13.009-2.059
	c-4.157,3.027-5.077,8.851-2.056,13.009C527.21,243.178,533.026,244.105,537.197,241.078"/>
<path fill="#007BC1" d="M556.099,225.201c3.333-2.416,4.079-7.073,1.648-10.41c-2.417-3.322-7.075-4.056-10.404-1.641
	c-3.325,2.416-4.059,7.073-1.653,10.4C548.114,226.882,552.779,227.621,556.099,225.201"/>
</svg>
